<svg width="303" height="35" viewBox="0 0 303 35" fill="none" xmlns="http://www.w3.org/2000/svg">
<path d="M23.768 7.952C25.9867 7.952 27.7467 8.624 29.048 9.968C30.3707 11.312 31.032 13.1787 31.032 15.568V26H25.592V16.304C25.592 15.152 25.2827 14.2667 24.664 13.648C24.0667 13.008 23.2347 12.688 22.168 12.688C21.1013 12.688 20.2587 13.008 19.64 13.648C19.0427 14.2667 18.744 15.152 18.744 16.304V26H13.304V16.304C13.304 15.152 12.9947 14.2667 12.376 13.648C11.7787 13.008 10.9467 12.688 9.88 12.688C8.81333 12.688 7.97067 13.008 7.352 13.648C6.75467 14.2667 6.456 15.152 6.456 16.304V26H0.984V8.144H6.456V10.384C7.01067 9.63733 7.736 9.05067 8.632 8.624C9.528 8.176 10.5413 7.952 11.672 7.952C13.016 7.952 14.2107 8.24 15.256 8.816C16.3227 9.392 17.1547 10.2133 17.752 11.28C18.3707 10.2987 19.2133 9.49867 20.28 8.88C21.3467 8.26133 22.5093 7.952 23.768 7.952ZM51.691 16.784C51.691 17.296 51.659 17.8293 51.595 18.384H39.211C39.2963 19.4933 39.6483 20.3467 40.267 20.944C40.907 21.52 41.6857 21.808 42.603 21.808C43.9683 21.808 44.9177 21.232 45.451 20.08H51.275C50.9763 21.2533 50.4323 22.3093 49.643 23.248C48.875 24.1867 47.9043 24.9227 46.731 25.456C45.5577 25.9893 44.2457 26.256 42.795 26.256C41.0457 26.256 39.4883 25.8827 38.123 25.136C36.7577 24.3893 35.691 23.3227 34.923 21.936C34.155 20.5493 33.771 18.928 33.771 17.072C33.771 15.216 34.1443 13.5947 34.891 12.208C35.659 10.8213 36.7257 9.75467 38.091 9.008C39.4563 8.26133 41.0243 7.888 42.795 7.888C44.523 7.888 46.059 8.25067 47.403 8.976C48.747 9.70133 49.7923 10.736 50.539 12.08C51.307 13.424 51.691 14.992 51.691 16.784ZM46.091 15.344C46.091 14.4053 45.771 13.6587 45.131 13.104C44.491 12.5493 43.691 12.272 42.731 12.272C41.8137 12.272 41.035 12.5387 40.395 13.072C39.7763 13.6053 39.3923 14.3627 39.243 15.344H46.091ZM60.0498 11.12C60.6898 10.1387 61.4898 9.37067 62.4498 8.816C63.4098 8.24 64.4764 7.952 65.6498 7.952V13.744H64.1458C62.7804 13.744 61.7564 14.0427 61.0738 14.64C60.3911 15.216 60.0498 16.24 60.0498 17.712V26H54.5778V8.144H60.0498V11.12ZM76.3933 26.256C74.6439 26.256 73.0653 25.8827 71.6573 25.136C70.2706 24.3893 69.1719 23.3227 68.3613 21.936C67.5719 20.5493 67.1773 18.928 67.1773 17.072C67.1773 15.2373 67.5826 13.6267 68.3932 12.24C69.2039 10.832 70.3133 9.75467 71.7213 9.008C73.1293 8.26133 74.7079 7.888 76.4573 7.888C78.2066 7.888 79.7853 8.26133 81.1933 9.008C82.6013 9.75467 83.7106 10.832 84.5213 12.24C85.3319 13.6267 85.7373 15.2373 85.7373 17.072C85.7373 18.9067 85.3213 20.528 84.4893 21.936C83.6786 23.3227 82.5586 24.3893 81.1293 25.136C79.7213 25.8827 78.1426 26.256 76.3933 26.256ZM76.3933 21.52C77.4386 21.52 78.3239 21.136 79.0493 20.368C79.7959 19.6 80.1693 18.5013 80.1693 17.072C80.1693 15.6427 79.8066 14.544 79.0813 13.776C78.3773 13.008 77.5026 12.624 76.4573 12.624C75.3906 12.624 74.5053 13.008 73.8013 13.776C73.0973 14.5227 72.7453 15.6213 72.7453 17.072C72.7453 18.5013 73.0866 19.6 73.7693 20.368C74.4733 21.136 75.3479 21.52 76.3933 21.52ZM94.1123 10.672C94.6243 9.84 95.3603 9.168 96.3203 8.656C97.2803 8.144 98.3789 7.888 99.6163 7.888C101.088 7.888 102.422 8.26133 103.616 9.008C104.811 9.75467 105.75 10.8213 106.432 12.208C107.136 13.5947 107.488 15.2053 107.488 17.04C107.488 18.8747 107.136 20.496 106.432 21.904C105.75 23.2907 104.811 24.368 103.616 25.136C102.422 25.8827 101.088 26.256 99.6163 26.256C98.3576 26.256 97.2589 26.0107 96.3203 25.52C95.3816 25.008 94.6456 24.336 94.1123 23.504V26H88.6403V2.32H94.1123V10.672ZM101.92 17.04C101.92 15.6747 101.536 14.608 100.768 13.84C100.022 13.0507 99.0936 12.656 97.9843 12.656C96.8963 12.656 95.9683 13.0507 95.2003 13.84C94.4536 14.6293 94.0803 15.7067 94.0803 17.072C94.0803 18.4373 94.4536 19.5147 95.2003 20.304C95.9683 21.0933 96.8963 21.488 97.9843 21.488C99.0723 21.488 100 21.0933 100.768 20.304C101.536 19.4933 101.92 18.4053 101.92 17.04ZM118.487 26.256C116.738 26.256 115.159 25.8827 113.751 25.136C112.364 24.3893 111.266 23.3227 110.455 21.936C109.666 20.5493 109.271 18.928 109.271 17.072C109.271 15.2373 109.676 13.6267 110.487 12.24C111.298 10.832 112.407 9.75467 113.815 9.008C115.223 8.26133 116.802 7.888 118.551 7.888C120.3 7.888 121.879 8.26133 123.287 9.008C124.695 9.75467 125.804 10.832 126.615 12.24C127.426 13.6267 127.831 15.2373 127.831 17.072C127.831 18.9067 127.415 20.528 126.583 21.936C125.772 23.3227 124.652 24.3893 123.223 25.136C121.815 25.8827 120.236 26.256 118.487 26.256ZM118.487 21.52C119.532 21.52 120.418 21.136 121.143 20.368C121.89 19.6 122.263 18.5013 122.263 17.072C122.263 15.6427 121.9 14.544 121.175 13.776C120.471 13.008 119.596 12.624 118.551 12.624C117.484 12.624 116.599 13.008 115.895 13.776C115.191 14.5227 114.839 15.6213 114.839 17.072C114.839 18.5013 115.18 19.6 115.863 20.368C116.567 21.136 117.442 21.52 118.487 21.52ZM138.862 26.256C137.113 26.256 135.534 25.8827 134.126 25.136C132.739 24.3893 131.641 23.3227 130.83 21.936C130.041 20.5493 129.646 18.928 129.646 17.072C129.646 15.2373 130.051 13.6267 130.862 12.24C131.673 10.832 132.782 9.75467 134.19 9.008C135.598 8.26133 137.177 7.888 138.926 7.888C140.675 7.888 142.254 8.26133 143.662 9.008C145.07 9.75467 146.179 10.832 146.99 12.24C147.801 13.6267 148.206 15.2373 148.206 17.072C148.206 18.9067 147.79 20.528 146.958 21.936C146.147 23.3227 145.027 24.3893 143.598 25.136C142.19 25.8827 140.611 26.256 138.862 26.256ZM138.862 21.52C139.907 21.52 140.793 21.136 141.518 20.368C142.265 19.6 142.638 18.5013 142.638 17.072C142.638 15.6427 142.275 14.544 141.55 13.776C140.846 13.008 139.971 12.624 138.926 12.624C137.859 12.624 136.974 13.008 136.27 13.776C135.566 14.5227 135.214 15.6213 135.214 17.072C135.214 18.5013 135.555 19.6 136.238 20.368C136.942 21.136 137.817 21.52 138.862 21.52ZM162.021 26L156.581 18.512V26H151.109V2.32H156.581V15.408L161.989 8.144H168.741L161.317 17.104L168.805 26H162.021ZM173.642 6.288C172.682 6.288 171.893 6.01067 171.274 5.456C170.677 4.88 170.378 4.176 170.378 3.344C170.378 2.49067 170.677 1.78667 171.274 1.232C171.893 0.655998 172.682 0.367998 173.642 0.367998C174.581 0.367998 175.349 0.655998 175.946 1.232C176.565 1.78667 176.874 2.49067 176.874 3.344C176.874 4.176 176.565 4.88 175.946 5.456C175.349 6.01067 174.581 6.288 173.642 6.288ZM176.362 8.144V26H170.89V8.144H176.362ZM191.208 7.952C193.298 7.952 194.962 8.63467 196.2 10C197.458 11.344 198.088 13.2 198.088 15.568V26H192.648V16.304C192.648 15.1093 192.338 14.1813 191.72 13.52C191.101 12.8587 190.269 12.528 189.224 12.528C188.178 12.528 187.346 12.8587 186.728 13.52C186.109 14.1813 185.8 15.1093 185.8 16.304V26H180.328V8.144H185.8V10.512C186.354 9.72267 187.101 9.104 188.04 8.656C188.978 8.18667 190.034 7.952 191.208 7.952ZM208.674 7.888C209.933 7.888 211.032 8.144 211.97 8.656C212.93 9.168 213.666 9.84 214.178 10.672V8.144H219.65V25.968C219.65 27.6107 219.32 29.0933 218.658 30.416C218.018 31.76 217.026 32.8267 215.682 33.616C214.36 34.4053 212.706 34.8 210.722 34.8C208.077 34.8 205.933 34.1707 204.29 32.912C202.648 31.6747 201.709 29.9893 201.474 27.856H206.882C207.053 28.5387 207.458 29.072 208.098 29.456C208.738 29.8613 209.528 30.064 210.466 30.064C211.597 30.064 212.493 29.7333 213.154 29.072C213.837 28.432 214.178 27.3973 214.178 25.968V23.44C213.645 24.272 212.909 24.9547 211.97 25.488C211.032 26 209.933 26.256 208.674 26.256C207.202 26.256 205.869 25.8827 204.674 25.136C203.48 24.368 202.53 23.2907 201.826 21.904C201.144 20.496 200.802 18.8747 200.802 17.04C200.802 15.2053 201.144 13.5947 201.826 12.208C202.53 10.8213 203.48 9.75467 204.674 9.008C205.869 8.26133 207.202 7.888 208.674 7.888ZM214.178 17.072C214.178 15.7067 213.794 14.6293 213.026 13.84C212.28 13.0507 211.362 12.656 210.274 12.656C209.186 12.656 208.258 13.0507 207.49 13.84C206.744 14.608 206.37 15.6747 206.37 17.04C206.37 18.4053 206.744 19.4933 207.49 20.304C208.258 21.0933 209.186 21.488 210.274 21.488C211.362 21.488 212.28 21.0933 213.026 20.304C213.794 19.5147 214.178 18.4373 214.178 17.072Z" fill="#1E4FCE"/>
<path d="M226.169 26.256C225.209 26.256 224.42 25.9787 223.801 25.424C223.204 24.848 222.905 24.144 222.905 23.312C222.905 22.4587 223.204 21.744 223.801 21.168C224.42 20.592 225.209 20.304 226.169 20.304C227.108 20.304 227.876 20.592 228.473 21.168C229.092 21.744 229.401 22.4587 229.401 23.312C229.401 24.144 229.092 24.848 228.473 25.424C227.876 25.9787 227.108 26.256 226.169 26.256ZM231.552 17.072C231.552 15.216 231.926 13.5947 232.672 12.208C233.44 10.8213 234.496 9.75467 235.84 9.008C237.206 8.26133 238.763 7.888 240.512 7.888C242.752 7.888 244.619 8.47467 246.112 9.648C247.627 10.8213 248.619 12.4747 249.088 14.608H243.264C242.774 13.2427 241.824 12.56 240.416 12.56C239.414 12.56 238.614 12.9547 238.016 13.744C237.419 14.512 237.12 15.6213 237.12 17.072C237.12 18.5227 237.419 19.6427 238.016 20.432C238.614 21.2 239.414 21.584 240.416 21.584C241.824 21.584 242.774 20.9013 243.264 19.536H249.088C248.619 21.6267 247.627 23.2693 246.112 24.464C244.598 25.6587 242.731 26.256 240.512 26.256C238.763 26.256 237.206 25.8827 235.84 25.136C234.496 24.3893 233.44 23.3227 232.672 21.936C231.926 20.5493 231.552 18.928 231.552 17.072ZM260.143 26.256C258.394 26.256 256.815 25.8827 255.407 25.136C254.021 24.3893 252.922 23.3227 252.111 21.936C251.322 20.5493 250.927 18.928 250.927 17.072C250.927 15.2373 251.333 13.6267 252.143 12.24C252.954 10.832 254.063 9.75467 255.471 9.008C256.879 8.26133 258.458 7.888 260.207 7.888C261.957 7.888 263.535 8.26133 264.943 9.008C266.351 9.75467 267.461 10.832 268.271 12.24C269.082 13.6267 269.487 15.2373 269.487 17.072C269.487 18.9067 269.071 20.528 268.239 21.936C267.429 23.3227 266.309 24.3893 264.879 25.136C263.471 25.8827 261.893 26.256 260.143 26.256ZM260.143 21.52C261.189 21.52 262.074 21.136 262.799 20.368C263.546 19.6 263.919 18.5013 263.919 17.072C263.919 15.6427 263.557 14.544 262.831 13.776C262.127 13.008 261.253 12.624 260.207 12.624C259.141 12.624 258.255 13.008 257.551 13.776C256.847 14.5227 256.495 15.6213 256.495 17.072C256.495 18.5013 256.837 19.6 257.519 20.368C258.223 21.136 259.098 21.52 260.143 21.52ZM295.174 7.952C297.393 7.952 299.153 8.624 300.454 9.968C301.777 11.312 302.438 13.1787 302.438 15.568V26H296.998V16.304C296.998 15.152 296.689 14.2667 296.07 13.648C295.473 13.008 294.641 12.688 293.574 12.688C292.508 12.688 291.665 13.008 291.046 13.648C290.449 14.2667 290.15 15.152 290.15 16.304V26H284.71V16.304C284.71 15.152 284.401 14.2667 283.782 13.648C283.185 13.008 282.353 12.688 281.286 12.688C280.22 12.688 279.377 13.008 278.758 13.648C278.161 14.2667 277.862 15.152 277.862 16.304V26H272.39V8.144H277.862V10.384C278.417 9.63733 279.142 9.05067 280.038 8.624C280.934 8.176 281.948 7.952 283.078 7.952C284.422 7.952 285.617 8.24 286.662 8.816C287.729 9.392 288.561 10.2133 289.158 11.28C289.777 10.2987 290.62 9.49867 291.686 8.88C292.753 8.26133 293.916 7.952 295.174 7.952Z" fill="#E2641D"/>
</svg>
